HIERARCHY
ROOT Hips
{
	OFFSET	0.00	0.00	0.00
	CHANNELS 6 Xposition Yposition Zposition Zrotation Xrotation Yrotation
	JOINT LeftUpLeg
	{
		OFFSET	 0.126116	-0.014019	-0.065224
		CHANNELS 3 Zrotation Xrotation Yrotation
		JOINT LeftLeg
		{
			OFFSET	 0.000000	 0.000000	 0.569914
			CHANNELS 3 Zrotation Xrotation Yrotation
			JOINT LeftFoot
			{
				OFFSET	 0.000000	 0.000000	 0.544423
				CHANNELS 3 Zrotation Xrotation Yrotation
				JOINT LeftToeBase
				{
					OFFSET	 0.000000	 0.000000	 0.207117
					CHANNELS 3 Zrotation Xrotation Yrotation
					End Site
					{
						OFFSET	 0.000000	 0.000000	 0.207117
					}
				}
			}
		}
	}
	JOINT RightUpLeg
	{
		OFFSET	-0.124023	-0.008373	-0.065224
		CHANNELS 3 Zrotation Xrotation Yrotation
		JOINT RightLeg
		{
			OFFSET	 0.000000	 0.000000	 0.570047
			CHANNELS 3 Zrotation Xrotation Yrotation
			JOINT RightFoot
			{
				OFFSET	 0.000000	 0.000000	 0.544354
				CHANNELS 3 Zrotation Xrotation Yrotation
				JOINT RightToeBase
				{
					OFFSET	 0.000000	 0.000000	 0.207540
					CHANNELS 3 Zrotation Xrotation Yrotation
					End Site
					{
						OFFSET	 0.000000	 0.000000	 0.207540
					}
				}
			}
		}
	}
	JOINT Spine
	{
		OFFSET	 0.000184	-0.007763	 0.117403
		CHANNELS 3 Zrotation Xrotation Yrotation
		JOINT Spine1
		{
			OFFSET	 0.000000	 0.000000	 0.137269
			CHANNELS 3 Zrotation Xrotation Yrotation
			JOINT Spine2
			{
				OFFSET	 0.000000	 0.000000	 0.156879
				CHANNELS 3 Zrotation Xrotation Yrotation
				JOINT LeftShoulder
				{
					OFFSET	 0.080501	-0.002496	 0.160144
					CHANNELS 3 Zrotation Xrotation Yrotation
					JOINT LeftArm
					{
						OFFSET	 0.000000	 0.000000	 0.164363
						CHANNELS 3 Zrotation Xrotation Yrotation
						JOINT LeftForeArm
						{
							OFFSET	 0.000000	 0.000000	 0.364576
							CHANNELS 3 Zrotation Xrotation Yrotation
							JOINT LeftHand
							{
								OFFSET	 0.000000	 0.000000	 0.360812
								CHANNELS 3 Zrotation Xrotation Yrotation
								JOINT LeftHandIndex1
								{
									OFFSET	 0.000000	 0.000000	 0.086006
									CHANNELS 3 Zrotation Xrotation Yrotation
									JOINT LeftHandIndex2
									{
										OFFSET	 0.000000	 0.000000	 0.047237
										CHANNELS 3 Zrotation Xrotation Yrotation
										JOINT LeftHandIndex3
										{
											OFFSET	-0.004284	-0.000551	 0.038165
											CHANNELS 3 Zrotation Xrotation Yrotation
											End Site
											{
												OFFSET	-0.004284	-0.000551	 0.038165
											}
										}
									}
								}
							}
						}
					}
				}
				JOINT Neck
				{
					OFFSET	 0.000000	 0.000000	 0.176489
					CHANNELS 3 Zrotation Xrotation Yrotation
					JOINT Head
					{
						OFFSET	 0.000000	-0.001747	 0.077940
						CHANNELS 3 Zrotation Xrotation Yrotation
						End Site
						{
							OFFSET	 0.000000	-0.001747	 0.077940
						}
					}
				}
				JOINT RightShoulder
				{
					OFFSET	-0.080363	 0.000306	 0.159706
					CHANNELS 3 Zrotation Xrotation Yrotation
					JOINT RightArm
					{
						OFFSET	 0.000000	 0.000000	 0.164196
						CHANNELS 3 Zrotation Xrotation Yrotation
						JOINT RightForeArm
						{
							OFFSET	 0.000000	 0.000000	 0.365611
							CHANNELS 3 Zrotation Xrotation Yrotation
							JOINT RightHand
							{
								OFFSET	 0.000000	 0.000000	 0.360648
								CHANNELS 3 Zrotation Xrotation Yrotation
								JOINT RightHandIndex1
								{
									OFFSET	 0.000000	 0.000000	 0.069977
									CHANNELS 3 Zrotation Xrotation Yrotation
									JOINT RightHandIndex2
									{
										OFFSET	 0.000000	 0.000000	 0.052305
										CHANNELS 3 Zrotation Xrotation Yrotation
										JOINT RightHandIndex3
										{
											OFFSET	 0.009002	-0.000782	 0.042196
											CHANNELS 3 Zrotation Xrotation Yrotation
											End Site
											{
												OFFSET	 0.009002	-0.000782	 0.042196
											}
										}
									}
								}
							}
						}
					}
				}
			}
		}
	}
}
MOTION
Frames:    13
Frame Time: 0.03333334
-0.457292	-0.032846	 1.275180	 179.671900	-3.211273	 4.277484	 7.791918	-0.760996	 175.858100	-8.316073	-15.740200	-2.426261	 11.925990	 74.422120	-22.557780	-2.385833	 28.452760	 0.000004	 30.709270	 2.491245	 172.265600	 2.814155	-2.588004	 0.058326	-1.471961	 62.432580	 16.675280	 2.384659	 28.388700	-0.000001	-6.376338	 8.129225	-5.211999	-2.275957	 3.885709	-10.939500	 10.482640	-3.184190	 18.765830	-91.776200	 78.527420	-180.000000	-72.009750	 3.349199	-20.786410	 1.211023	-0.028466	-0.510075	-0.653623	-21.480610	-2.035363	-4.130319	 21.525730	 0.991547	-5.167930	 0.731704	 3.519349	-1.378229	 35.397820	-2.634230	-2.913226	 0.846994	 1.831240	-11.643010	-28.328000	-13.152820	 89.782050	 78.203830	-180.000000	-12.201290	-8.063255	-4.753512	-16.951010	-5.260616	 25.462300	 5.291067	 31.344780	 141.593500	 5.716227	 19.173190	-3.685159	 5.027444	 0.246877	-9.377972	-2.350882	 35.473990	 5.254307
-0.457618	-0.032887	 1.275654	-179.876500	-3.258240	 4.677496	 8.435925	-1.258105	 175.349100	-9.249823	-16.531560	-2.817062	 13.091780	 74.903490	-22.934880	-2.385833	 28.452760	 0.000004	 29.968980	 3.511521	 171.905400	 3.467715	-0.513946	 0.017449	-4.327103	 60.711700	 19.163850	 2.384659	 28.388700	-0.000001	-6.589764	 8.160488	-5.670688	-2.269023	 4.534896	-11.304840	 10.561160	-4.171126	 19.416130	-91.776210	 78.527400	-180.000000	-76.663760	 5.502628	-15.721090	 0.834118	-0.504874	-10.141240	-0.947746	-21.021770	-2.204052	-4.130319	 21.525730	 0.991547	-5.167930	 0.731704	 3.519349	-1.378229	 35.397820	-2.634230	-3.147486	 1.174011	 2.309228	-12.295870	-29.366600	-15.018680	 89.782140	 78.203890	 180.000000	-12.040500	-7.895022	-6.055242	-16.632680	-5.831543	 28.543470	 3.662757	 33.067580	 146.894200	 5.716227	 19.173190	-3.685159	 5.027444	 0.246877	-9.377972	-2.350882	 35.473990	 5.254307
-0.457880	-0.033007	 1.275872	-179.106900	-3.105203	 4.457163	 6.347245	-1.608527	 175.857500	-9.448936	-17.258680	-2.997786	 12.323090	 75.214100	-21.962480	-2.385833	 28.452760	 0.000004	 28.137910	 1.172686	 172.408200	 3.778742	-5.955575	 0.234206	-5.809176	 63.603970	 20.478080	 2.384659	 28.388700	-0.000001	-7.486229	 8.171143	-5.233479	-2.251596	 4.108740	-11.711140	 10.370610	-3.577965	 19.610500	-91.776180	 78.527420	-180.000000	-75.722640	 5.977863	-7.312793	 0.655327	-1.365495	-27.317330	-0.850488	-21.112990	-2.208382	-4.130319	 21.525730	 0.991547	-5.167930	 0.731704	 3.519349	-1.378229	 35.397820	-2.634230	-3.061748	 0.706325	 1.951313	-12.097640	-28.612070	-14.481630	 89.782060	 78.203890	-180.000000	-9.607964	-7.672988	-9.396634	-14.188570	-6.378324	 37.849640	 3.436710	 38.553260	 137.535700	 5.716227	 19.173190	-3.685159	 5.027444	 0.246877	-9.377972	-2.350882	 35.473990	 5.254307
-0.458141	-0.033445	 1.275260	-177.668900	-3.101606	 4.001366	 2.253681	-2.862853	 176.902200	-9.551290	-20.651530	-3.599360	 10.621380	 77.582090	-20.242290	-2.385833	 28.452760	 0.000004	 24.637280	-1.732664	 173.495500	 4.352593	-13.871370	 0.678986	-8.340306	 67.349030	 22.760820	 2.384659	 28.388700	-0.000001	-9.224047	 7.987540	-4.849358	-2.483640	 4.201915	-11.185990	 9.860070	-2.722133	 19.121800	-91.776180	 78.527360	-180.000000	-73.591950	 8.470078	 8.446383	-0.483542	-2.511709	-59.095820	-0.924149	-20.994340	-2.227132	-4.130319	 21.525730	 0.991547	-5.167930	 0.731704	 3.519349	-1.378229	 35.397820	-2.634230	-3.255366	 0.170823	 0.599146	-11.807810	-27.425840	-11.366010	 89.782160	 78.203870	 179.999900	-5.080261	-6.431238	-17.128650	-10.796830	-9.451929	 63.188030	 14.248960	 40.679300	 113.509400	 5.716227	 19.173190	-3.685159	 5.027444	 0.246877	-9.377972	-2.350882	 35.473990	 5.254307
-0.459429	-0.034772	 1.271734	-176.342900	-2.533183	 4.373401	-2.116013	-7.593869	 177.476700	-9.958082	-31.227810	-5.498942	 5.897361	 83.877080	-15.904380	-2.385833	 28.452760	 0.000004	 20.990640	-6.830994	 175.335200	 5.236322	-25.345400	 1.591551	-7.323840	 71.575860	 20.927900	 2.384659	 28.388700	-0.000001	-11.494450	 6.663776	-6.056174	-3.839613	 6.986270	-10.411110	 10.143820	-4.235919	 19.584890	-91.776180	 78.527420	-180.000000	-59.630980	 23.379120	 30.932490	-3.074981	-2.659495	-112.273600	-1.022358	-20.953370	-2.252417	-4.130319	 21.525730	 0.991547	-5.167930	 0.731704	 3.519349	-1.378229	 35.397820	-2.634230	-4.101283	 2.360392	 2.536116	-12.894960	-28.946720	-15.551120	 89.782100	 78.203870	 180.000000	 1.669405	 10.275320	-18.231010	-2.661672	-9.838344	 109.123600	 29.231270	 30.372720	 58.006850	 5.716227	 19.173190	-3.685159	 5.027444	 0.246877	-9.377972	-2.350882	 35.473990	 5.254307
-0.461802	-0.037154	 1.264917	-175.275900	-0.810525	 4.499236	-5.535571	-13.579020	 178.551900	-10.977180	-43.278930	-7.967255	-141.992200	 88.740880	 131.457500	-2.385833	 28.452760	 0.000004	 19.986640	-12.938190	 179.029300	 6.294357	-37.133870	 2.884809	-1.085187	 76.513420	 13.593070	 2.384659	 28.388700	-0.000001	-14.516380	 4.705784	-6.475733	-5.639471	 8.270452	-10.801920	 9.951984	-3.601322	 19.912160	-91.776210	 78.527430	-180.000000	 30.309360	 52.068160	-47.944490	-3.348520	-2.684898	-116.915800	-0.928478	-21.328960	-2.274445	-4.130319	 21.525730	 0.991547	-5.167930	 0.731704	 3.519349	-1.378229	 35.397820	-2.634230	-4.061554	 0.898743	 1.390141	-12.284430	-26.588530	-12.477970	 89.782100	 78.203890	-180.000000	-46.361770	 46.267250	 58.733040	-4.276169	-10.304330	 99.834500	-4.859527	 12.511010	 14.028470	 5.716227	 19.173190	-3.685159	 5.027444	 0.246877	-9.377972	-2.350882	 35.473990	 5.254307
-0.469429	-0.040292	 1.261175	-174.178600	 0.146249	 4.018662	-8.507979	-16.014680	-179.853500	-11.025460	-47.753540	-8.630313	-166.106400	 86.497920	 154.946100	-2.385833	 28.452760	 0.000004	 21.824580	-15.278320	-178.262100	 5.502967	-42.021190	 2.666801	 10.320430	 78.961670	 2.268041	 2.384659	 28.388700	-0.000001	-16.324210	 3.643016	-6.113652	-6.325712	 8.244784	-10.359970	 9.637802	-2.820686	 19.588730	-91.776230	 78.527330	-180.000000	 53.300270	 44.512730	-89.553640	-1.441588	-3.058158	-79.898090	-0.893705	-22.072300	-2.308942	-4.130319	 21.525730	 0.991547	-5.167930	 0.731704	 3.519349	-1.378229	 35.397820	-2.634230	-4.051096	-0.502483	 0.566473	-11.892210	-24.677100	-10.162450	 89.782080	 78.203850	 180.000000	-68.201550	 39.230600	 104.373200	-12.158290	-8.677245	 54.660770	-14.100420	-3.379329	 22.141850	 5.716227	 19.173190	-3.685159	 5.027444	 0.246877	-9.377972	-2.350882	 35.473990	 5.254307
-0.482498	-0.043445	 1.261522	-173.314700	-0.440773	 4.247031	-11.477200	-14.800010	-179.077300	-9.837378	-45.904080	-7.507998	-177.245400	 88.257970	 165.386700	-2.385833	 28.452760	 0.000004	 23.426690	-15.136440	-178.350400	 4.444733	-42.382430	 1.970641	 16.447270	 79.747620	-3.418244	 2.384659	 28.388700	-0.000001	-15.972250	 4.679720	-6.055566	-5.243835	 7.008020	-9.359112	 9.482043	-2.812826	 19.208110	-91.776170	 78.527430	 180.000000	 47.541790	 46.180520	-76.561950	-2.171727	-3.130108	-93.393260	-0.959033	-22.887020	-2.363349	-4.130319	 21.525730	 0.991547	-5.167930	 0.731704	 3.519349	-1.378229	 35.397820	-2.634230	-4.395469	 0.643662	 1.633390	-12.390870	-25.879900	-12.439580	 89.782120	 78.203920	 180.000000	-61.640810	 43.171500	 88.238880	-8.903035	-9.482172	 73.181610	-9.999986	-1.039760	 16.822200	 5.716227	 19.173190	-3.685159	 5.027444	 0.246877	-9.377972	-2.350882	 35.473990	 5.254307
-0.493898	-0.044839	 1.260964	-172.417900	-1.165663	 4.545776	-14.489370	-13.060100	-177.806900	-8.545766	-44.176960	-6.374161	 44.911360	 89.296130	-57.489350	-2.385833	 28.452760	 0.000004	 26.075750	-17.717260	-176.932700	 4.044953	-48.095750	 1.877785	 44.991760	 83.987250	-31.969670	 2.384659	 28.388700	-0.000001	-14.279080	 6.352326	-5.340443	-2.727091	 4.199846	-8.572754	 9.067271	-2.135620	 18.482410	-91.776180	 78.527360	 180.000000	 48.913380	 44.910070	-77.793770	-2.167920	-3.201928	-93.250110	-1.016191	-24.387370	-2.432672	-4.130319	 21.525730	 0.991547	-5.167930	 0.731704	 3.519349	-1.378229	 35.397820	-2.634230	-4.631356	 0.824760	 2.088147	-12.671200	-26.432250	-13.133050	 89.782140	 78.203900	 180.000000	-61.817480	 43.787560	 87.193170	-8.752082	-9.699450	 74.364030	-8.972933	-7.750293	 14.210230	 5.716227	 19.173190	-3.685159	 5.027444	 0.246877	-9.377972	-2.350882	 35.473990	 5.254307
-0.485582	-0.042955	 1.266726	-171.148600	-2.280730	 3.881653	-18.765930	-10.288860	-176.275900	-6.689077	-41.140470	-4.784635	 19.888370	 86.307470	-33.588120	-2.385833	 28.452760	 0.000004	 33.336350	-18.855880	-174.032400	 0.475859	-44.403950	-0.732500	 54.889930	 80.039700	-40.915290	 2.384659	 28.388700	-0.000001	-10.237320	 9.129775	-5.471622	 1.876179	 2.389992	-2.676438	 8.769396	-2.655389	 14.795780	-91.776200	 78.527350	-180.000000	 51.495170	 43.173350	-80.482430	-2.184978	-3.208371	-93.547100	-1.172800	-26.694380	-2.516024	-4.130319	 21.525730	 0.991547	-5.167930	 0.731704	 3.519349	-1.378229	 35.397820	-2.634230	-4.887063	-0.561186	 1.722667	-12.669050	-25.842920	-11.533760	 89.782100	 78.203850	 180.000000	-61.152710	 44.762890	 85.218550	-8.459167	-10.192220	 76.637280	-8.726777	-20.082040	 9.033095	 5.716227	 19.173190	-3.685159	 5.027444	 0.246877	-9.377972	-2.350882	 35.473990	 5.254307
-0.469621	-0.036045	 1.271975	-170.443400	-2.784044	 4.533844	-21.988450	-8.881314	-176.942200	-5.648866	-40.568370	-4.048044	 2.498728	 85.902470	-16.466870	-2.385833	 28.452760	 0.000004	 38.561300	-18.534850	-174.034700	-2.594664	-36.746600	-2.466030	 42.167640	 74.833220	-26.112930	 2.384659	 28.388700	-0.000001	-7.244679	 10.316730	-6.615374	 4.801797	 3.997099	-2.416780	 9.020620	-4.207387	 15.212420	-91.776120	 78.527380	 180.000000	 53.065730	 41.994630	-82.121350	-2.175632	-3.184379	-93.406710	-1.283880	-27.836100	-2.563216	-4.130319	 21.525730	 0.991547	-5.167930	 0.731704	 3.519349	-1.378229	 35.397820	-2.634230	-5.297563	-1.001985	 2.470225	-12.959190	-25.773520	-12.231530	 89.782140	 78.203870	 180.000000	-60.380350	 45.097580	 83.481250	-8.312954	-10.259840	 77.503040	-11.282510	-27.301170	 4.865384	 5.716227	 19.173190	-3.685159	 5.027444	 0.246877	-9.377972	-2.350882	 35.473990	 5.254307
-0.444790	-0.021891	 1.275965	-169.801800	-3.676334	 4.610204	-26.542870	-6.906670	-176.973300	-4.213916	-40.062830	-3.077718	-4.141044	 85.154630	-10.577520	-2.385833	 28.452760	 0.000004	 39.253540	-18.723220	-175.548600	-3.285973	-32.880380	-2.614864	 32.676440	 69.791700	-16.044780	 2.384659	 28.388700	-0.000001	-3.650163	 11.603320	-7.902953	 8.095127	 5.097149	-0.385506	 9.054816	-5.591063	 14.515760	-91.776180	 78.527330	 180.000000	 54.442170	 40.850620	-83.148240	-2.170748	-3.249466	-93.251720	-1.302233	-28.791240	-2.619627	-4.130319	 21.525730	 0.991547	-5.167930	 0.731704	 3.519349	-1.378229	 35.397820	-2.634230	-5.571990	-1.193583	 2.316977	-13.178820	-26.454530	-11.425310	 89.782130	 78.203850	 180.000000	-59.989390	 45.377520	 81.941240	-8.109349	-9.950218	 78.257390	-14.203910	-35.856330	-0.311562	 5.716227	 19.173190	-3.685159	 5.027444	 0.246877	-9.377972	-2.350882	 35.473990	 5.254307
-0.436468	-0.017044	 1.277375	-169.869800	-4.055466	 4.448622	-29.819400	-6.311791	-176.121800	-3.117357	-39.725410	-2.353060	 0.739304	 84.320350	-16.459740	-2.385833	 28.452760	 0.000004	 36.109250	-18.861070	-176.182800	-2.367254	-32.529450	-2.094014	 28.904450	 67.664320	-13.170740	 2.384659	 28.388700	-0.000001	-2.205455	 12.070650	-8.405750	 8.974183	 5.941301	 0.641266	 9.196854	-6.738469	 14.495530	-91.776180	 78.527380	-180.000000	 54.486920	 40.216950	-82.859830	-2.168604	-3.140001	-93.326310	-1.436121	-28.769940	-2.631243	-4.130319	 21.525730	 0.991547	-5.167930	 0.731704	 3.519349	-1.378229	 35.397820	-2.634230	-5.780392	-0.628089	 2.641606	-13.518490	-27.707580	-12.004350	 89.782130	 78.203900	 180.000000	-60.465340	 45.718210	 81.838400	-8.168592	-10.265040	 78.284560	-16.231490	-38.586580	-2.255225	 5.716227	 19.173190	-3.685159	 5.027444	 0.246877	-9.377972	-2.350882	 35.473990	 5.254307
